<svg width="18" height="18" viewBox="0 0 18 18" fill="none" xmlns="http://www.w3.org/2000/svg">
<path d="M15.9627 6.20685L11.4996 5.55822L9.50448 1.51349C9.44999 1.40275 9.36034 1.3131 9.2496 1.25861C8.97186 1.1215 8.63436 1.23575 8.49549 1.51349L6.50038 5.55822L2.03729 6.20685C1.91425 6.22443 1.80174 6.28243 1.71561 6.37032C1.61148 6.47735 1.5541 6.62134 1.55608 6.77065C1.55806 6.91996 1.61923 7.06238 1.72616 7.16661L4.95526 10.3149L4.19237 14.7604C4.17448 14.8638 4.18592 14.9701 4.2254 15.0674C4.26488 15.1646 4.33082 15.2488 4.41573 15.3105C4.50065 15.3722 4.60114 15.4088 4.70583 15.4163C4.81051 15.4238 4.91519 15.4017 5.00799 15.3527L8.99999 13.2539L12.992 15.3527C13.101 15.4108 13.2275 15.4301 13.3488 15.409C13.6547 15.3563 13.8603 15.0662 13.8076 14.7604L13.0447 10.3149L16.2738 7.16661C16.3617 7.08048 16.4197 6.96798 16.4373 6.84493C16.4848 6.53732 16.2703 6.25255 15.9627 6.20685Z" fill="#FFD33C"/>
</svg>
